<?xml version="1.0" standalone="no"?>
<!DOCTYPE svg PUBLIC "-//W3C//DTD SVG 1.1//EN" "http://www.w3.org/Graphics/SVG/1.1/DTD/svg11.dtd" >
<svg xmlns="http://www.w3.org/2000/svg">
<metadata>Generated by IcoMoon</metadata>
<defs>
<font id="ejDiagramBuilder" horiz-adv-x="512">
<font-face units-per-em="512" ascent="480" descent="-32" />
<missing-glyph horiz-adv-x="512" />
<glyph unicode="&#x20;" d="" horiz-adv-x="256" />
<glyph unicode="&#xe600;" d="M2688 169.805h-271.027v108.391h271.053v-108.391zM2281.472 169.805h-271.104v108.391h271.104v-108.391zM1874.867 169.805h-271.053v108.391h271.053v-108.391zM1468.288 169.805h-271.053v108.391h271.053v-108.391zM1061.683 169.805h-271.079v108.391h271.053v-108.391zM655.053 169.805h-271.053v108.391h271.053v-108.391z" horiz-adv-x="3072" />
<glyph unicode="&#xe601;" d="M2688 171.034h-79.437v105.959h79.437v-105.959zM2529.152 171.034h-238.387v105.959h238.387v-105.959zM2052.454 171.034h-79.463v105.959h79.463v-105.959zM1893.555 171.034h-238.336v105.959h238.361v-105.959zM1416.858 171.034h-79.463v105.959h79.463v-105.959zM1257.958 171.034h-238.361v105.959h238.361v-105.959zM781.261 171.034h-79.462v105.959h79.462v-105.959zM622.361 171.034h-238.361v105.959h238.361v-105.959z" horiz-adv-x="3072" />
<glyph unicode="&#xe602;" d="M435.687 172.365c-13.543 0-26.906 5.504-36.531 15.104s-15.13 22.938-15.13 36.583c0 13.568 5.504 26.931 15.13 36.557 19.303 19.2 53.863 19.149 73.063 0 9.625-9.651 15.155-22.938 15.155-36.557 0-13.619-5.529-26.931-15.155-36.582-9.625-9.6-22.912-15.104-36.531-15.104zM2584.704 224c0 28.493 23.040 51.661 51.661 51.661v0c28.544 0 51.661-23.117 51.661-51.661v0c0-28.544-23.091-51.661-51.661-51.661v0c-28.595 0.026-51.661 23.117-51.661 51.661zM2384.615 224c0 28.493 23.091 51.661 51.661 51.661v0c28.544 0 51.712-23.117 51.712-51.661v0c0-28.544-23.142-51.661-51.712-51.661v0c-28.57 0.026-51.661 23.117-51.661 51.661zM2184.55 224c0 28.493 23.091 51.661 51.661 51.661v0c28.544 0 51.712-23.117 51.712-51.661v0c0-28.544-23.142-51.661-51.712-51.661v0c-28.544 0.026-51.661 23.117-51.661 51.661zM1984.512 224c0 28.493 23.091 51.661 51.661 51.661v0c28.544 0 51.712-23.117 51.712-51.661v0c0-28.544-23.091-51.661-51.712-51.661v0c-28.57 0.026-51.661 23.117-51.661 51.661zM1784.422 224c0 28.493 23.142 51.661 51.712 51.661v0c28.493 0 51.661-23.117 51.661-51.661v0c0-28.544-23.142-51.661-51.661-51.661v0c-28.57 0.026-51.712 23.117-51.712 51.661zM1584.359 224c0 28.493 23.142 51.661 51.712 51.661v0c28.544 0 51.661-23.117 51.661-51.661v0c0-28.544-23.040-51.661-51.661-51.661v0c-28.57 0.026-51.712 23.117-51.712 51.661zM1384.32 224c0 28.493 23.142 51.661 51.712 51.661v0c28.493 0 51.661-23.117 51.661-51.661v0c0-28.544-23.142-51.661-51.661-51.661v0c-28.544 0.026-51.712 23.117-51.712 51.661zM1184.256 224c0 28.493 23.117 51.661 51.687 51.661v0c28.518 0 51.635-23.117 51.635-51.661v0c0-28.544-23.091-51.661-51.635-51.661v0c-28.544 0.026-51.687 23.117-51.687 51.661zM984.192 224c0 28.493 23.117 51.661 51.661 51.661v0c28.493 0 51.687-23.117 51.687-51.661v0c0-28.544-23.168-51.661-51.687-51.661v0c-28.493 0.026-51.661 23.117-51.661 51.661zM784.154 224c0 28.493 23.091 51.661 51.687 51.661v0c28.519 0 51.635-23.117 51.635-51.661v0c0-28.544-23.091-51.661-51.635-51.661v0c-28.569 0.026-51.687 23.117-51.687 51.661zM584.064 224c0 28.493 23.143 51.661 51.687 51.661v0c28.493 0 51.661-23.117 51.661-51.661v0c0-28.544-23.143-51.661-51.661-51.661v0c-28.493 0.026-51.687 23.117-51.687 51.661zM2636.314 172.365c-13.543 0-26.905 5.504-36.506 15.104s-15.155 22.938-15.155 36.583c0 13.568 5.555 26.931 15.155 36.557 19.2 19.2 53.863 19.2 73.063 0 9.6-9.651 15.155-22.938 15.155-36.557 0-13.619-5.555-26.931-15.155-36.582-9.6-9.6-22.912-15.104-36.557-15.104z" horiz-adv-x="3072" />
<glyph unicode="&#xe603;" d="M384 278.093h2304v-108.185h-2304v108.185z" horiz-adv-x="3072" />
<glyph unicode="&#xe604;" d="M141.133 0.435c10.522 0 24.525 6.605 30.963 14.733l4.377 5.466c6.656 8.089 6.042 20.8-1.331 28.442l-58.163 60.199c-7.27 7.501-18.765 7.104-25.485-0.743l-3.623-4.365c-6.758-7.936-18.266-20.634-25.357-28.288l-58.407-61.632c-7.245-7.591-4.621-13.798 5.888-13.798h131.136zM499.111 351.68c18.534 23.245 17.126 57.152-4.531 78.656-21.632 21.466-55.719 22.797-79.194 4.467l-0.525 0.435-4.787-4.774c-0.051-0.103-0.051-0.103-0.051-0.103l-0.179-0.128-277.837-275.853 84.608-84.032 282.983 280.921-0.486 0.409z" />
<glyph unicode="&#xe605;" d="M512 85.325c0-12.928-8.281-23.462-18.227-23.462h-475.469c-10.099 0-18.304 10.496-18.304 23.462v46.912c0 12.966 8.23 23.501 18.304 23.501h475.469c10.022 0 18.227-10.496 18.227-23.501v-46.912z" />
<glyph unicode="&#xe606;" d="M0 468.531h512v-48.435h-512v48.435zM220.877 360.474h291.123v-48.487h-291.123v48.487zM0 252.352h512v-48.512h-512v48.512zM220.877 143.769h291.123v-48.474h-291.123v48.474zM0 27.942h512v-48.474h-512v48.474z" />
<glyph unicode="&#xe607;" d="M0 468.531h512v-48.423h-512v48.423zM0 360.461h291.123v-48.486h-291.123v48.486zM0 252.339h512v-48.499h-512v48.499zM0 143.705h291.123v-48.435h-291.123v48.435zM0 27.955h512v-48.499h-512v48.499z" />
<glyph unicode="&#xe608;" d="M0 468.505h512v-48.486h-512v48.486zM110.451 360.435h291.136v-48.448h-291.136v48.448zM0 252.301h512v-48.486h-512v48.487zM110.451 143.744h291.136v-48.499h-291.136v48.499zM0 27.968h512v-48.474h-512v48.474z" />
<glyph unicode="&#xe609;" d="M62.669-32v512h192.089c39.117 0 70.515-5.184 94.144-15.526 23.629-10.381 42.125-26.329 55.501-47.859 13.401-21.543 20.122-44.045 20.122-67.584 0-21.888-5.978-42.496-17.856-61.798-11.878-19.328-29.773-34.944-53.773-46.797 30.95-9.101 54.771-24.563 71.424-46.451 16.678-21.901 24.998-47.731 24.998-77.555 0-23.974-5.056-46.272-15.207-66.906s-22.695-36.505-37.555-47.642c-14.925-11.187-33.575-19.623-56.051-25.357-22.502-5.696-50.022-8.525-82.624-8.525h-195.213zM130.432 264.857h110.72c30.016 0 51.597 1.997 64.589 5.952 17.255 5.12 30.221 13.632 38.925 25.498 8.755 11.878 13.094 26.752 13.094 44.685 0 16.999-4.045 31.962-12.224 44.889-8.128 12.903-19.776 21.76-34.906 26.522-15.155 4.749-41.101 7.168-77.888 7.168h-102.336v-154.714zM130.432 28.429h127.475c21.888 0 37.223 0.781 46.093 2.406 15.603 2.791 28.647 7.475 39.104 14.003 10.496 6.502 19.123 16 25.894 28.467 6.771 12.454 10.125 26.829 10.125 43.123 0 19.072-4.902 35.661-14.695 49.753-9.779 14.093-23.373 24-40.678 29.709-17.331 5.696-42.279 8.538-74.944 8.538h-118.375v-176z" />
<glyph unicode="&#xe60a;" d="M472.725 413.149l-404.801-400.474-23.721 23.977 404.801 400.474 23.721-23.977zM107.002 22.848l-54.717-54.147-52.257 52.806 54.717 54.147 52.257-52.806zM512 426.496l-54.738-54.198-52.298 52.818 54.738 54.199 52.298-52.819z" />
<glyph unicode="&#xe60b;" d="M228.813 480l-4.506-13.926c19.367 0 32.345-1.165 39.091-3.597 6.669-2.381 11.61-5.824 14.912-10.381 3.251-4.583 4.877-10.048 4.877-16.576 0-13.159-3.801-32.486-11.315-58.163l-89.139-308.902c-8.832-30.464-17.344-51.623-25.664-63.501-5.286-7.501-13.517-13.44-24.537-17.715-6.823-2.995-20.749-4.825-41.907-5.286l-5.299-13.965h210.714l4.122 13.965c-21.837 1.536-36.339 3.533-43.213 5.875-6.951 2.342-11.929 5.747-15.091 10.125-3.149 4.467-4.749 9.792-4.749 16.128 0 7.872 4.071 25.907 12.032 54.375l88.743 308.902c9.37 31.936 16.96 52.57 22.873 61.939 5.965 9.344 14.592 16.448 25.959 21.529 7.744 3.738 19.661 5.517 35.75 5.248l4.199 13.926h-197.85z" />
<glyph unicode="&#xe60c;" d="M512 253.107h-398.272l151.053 151.014-1.139 1.088h-81.907l-181.734-181.811 180.697-180.621h84.083l-151.053 150.989h398.272z" />
<glyph unicode="&#xe60d;" d="M0.55 478.387h510.899v-508.8h-510.899v508.8z" />
<glyph unicode="&#xe60e;" d="M1.6 461.427h508.8v-474.867h-508.8v474.867z" />
<glyph unicode="&#xe60f;" d="M404.749 475.085v-34.765h-172.275v-397.773h-125.171v37.555h-107.302v-107.2h107.302v37.555h157.209v397.747h140.237v-40.41h107.251v107.29z" />
<glyph unicode="&#xe610;" d="M499.2 75.021v-94.233h-94.259z" />
<glyph unicode="&#xe611;" d="M0 450.496h512v-122.547h-512v122.547zM0 211.213h512v-61.248h-512v61.248zM0 21.965h512v-24.474h-512v24.474z" />
<glyph unicode="&#xe612;" d="M376.051 283.84c0.346 3.878 0.589 7.872 0.589 11.878v63.667c0 66.586-54.055 120.615-120.64 120.615-66.714 0-120.627-54.029-120.627-120.615v-63.667c0-4.007 0.218-8 0.679-11.878-34.266-8.691-59.571-39.539-59.571-76.455v-160.499c0-43.546 35.213-78.886 78.887-78.886h201.319c43.507 0 78.822 35.303 78.822 78.887v160.499c0 36.851-25.357 67.738-59.456 76.454zM166.195 351.322c0 49.561 40.141 89.792 89.805 89.792 49.651 0 89.843-40.154 89.843-89.792v-47.488c0-5.952-0.563-11.801-1.69-17.549h-176.281c-1.075 5.773-1.664 11.584-1.664 17.549v47.488zM281.395 105.894v-62.055h-40.819v62.055c-16.358 7.347-27.802 22.669-27.802 40.896 0 25.127 21.542 45.529 48.192 45.529 26.714 0 48.205-20.403 48.205-45.529 0.103-18.24-11.418-33.625-27.776-40.896z" />
<glyph unicode="&#xe613;" d="M331.353 405.209h-84.109l151.040-150.912h-398.285v-59.43h398.285l-151.040-150.925 1.178-1.165h81.805l181.773 181.76z" />
<glyph unicode="&#xe614;" d="M487.475-14.733c0-9.498-7.834-17.255-17.344-17.255h-452.697c-9.639 0-17.433 7.705-17.433 17.255v34.547c0 9.575 7.795 17.331 17.433 17.331h452.672c9.536 0 17.37-7.744 17.37-17.331v-34.547zM173.312 71.667c9.6 0 22.375 6.055 28.262 13.504l3.994 4.954c6.093 7.373 5.542 18.995-1.203 25.997l-53.12 54.925c-6.656 6.822-17.126 6.528-23.27-0.704l-3.302-3.981c-6.157-7.271-16.665-18.88-23.181-25.805l-53.35-56.32c-6.592-6.899-4.199-12.57 5.401-12.57h119.77zM500.199 392.423c16.96 21.248 15.693 52.185-4.122 71.821-19.725 19.584-50.855 20.813-72.346 4.071l-0.409 0.384-4.429-4.377c-0.038-0.077-0.038-0.077-0.038-0.077l-0.128-0.128-253.76-251.853 77.274-76.774 258.445 256.615-0.486 0.32z" />
<glyph unicode="&#xe615;" d="M105.472 72.307v297.984h-105.472v-383.117h400.832v85.133z" />
<glyph unicode="&#xe616;" d="M494.835-32.013h-93.223l-46.055 130.394h-201.331l-44.249-130.394h-92.813l191.719 512h95.655l190.298-512zM333.056 167.552l-71.027 204.25c-2.151 6.669-4.403 17.408-6.771 32.141h-1.408c-2.125-13.555-4.506-24.269-7.207-32.141l-70.285-204.25h156.698z" />
<glyph unicode="&#xe617;" d="M232.883 91.597c22.695 19.776 17.958 43.161 42.97 70.093 12.467 13.363 89.779 12.135 89.779 12.135s66.995 0.998 80.806-12.774c9.433-9.472 11.891-26.137 21.453-35.865 0.051-0.115 0.141-0.141 0.243-0.231 2.087-2.087 4.531-3.815 7.45-5.043 0.358-0.192 0.563-0.371 0.909-0.486 2.202-0.793 4.813-1.331 7.68-1.51 0.666-0.051 1.331-0.409 1.997-0.435 0 0 0.231 0.064 0.409 0.064 0.179 0 0.307-0.064 0.538-0.064 0.486 0 0.691 0.384 1.139 0.474 13.274 1.088 23.731 11.827 23.731 25.331v161.446c0 13.504-10.457 24.231-23.731 25.344-0.448 0.064-0.64 0.435-1.139 0.435-0.179 0-0.371-0.089-0.538-0.089-0.192 0-0.231 0.089-0.231 0.089-0.909 0-1.498-0.358-2.189-0.435-2.867-0.269-5.478-0.666-7.68-1.575-0.358-0.089-0.55-0.269-0.909-0.435-2.918-1.242-5.363-2.944-7.475-5.056-0.077-0.038-0.166-0.115-0.217-0.205-9.562-9.702-12.007-26.381-21.453-35.865-13.773-13.785-80.807-12.787-80.807-12.787s-77.312-1.28-89.779 12.122c-25.011 26.944-20.275 50.342-42.969 70.106-16.089 14.003-44.826 11.456-44.826 11.456l0.013-132.762h-116.979l-71.079-9.907v-2.381l71.079-9.945h116.967v-132.736c0.013 0.051 28.697-2.471 44.839 11.495z" />
<glyph unicode="&#xe618;" d="M388.403 200.883c-19.776 22.695-43.161 17.959-70.093 42.969-13.363 12.467-12.135 89.779-12.135 89.779s-0.998 66.995 12.774 80.807c9.472 9.433 26.137 11.891 35.865 21.453 0.115 0.051 0.141 0.141 0.231 0.243 2.087 2.087 3.815 4.531 5.043 7.45 0.192 0.358 0.371 0.563 0.486 0.909 0.793 2.202 1.331 4.813 1.51 7.68 0.051 0.666 0.409 1.331 0.435 1.997 0 0-0.064 0.231-0.064 0.409 0 0.179 0.064 0.307 0.064 0.538 0 0.486-0.384 0.691-0.474 1.139-1.088 13.273-11.827 23.731-25.331 23.731h-161.446c-13.504 0-24.231-10.457-25.344-23.731-0.064-0.448-0.435-0.64-0.435-1.139 0-0.179 0.089-0.371 0.089-0.538 0-0.192-0.089-0.231-0.089-0.231 0-0.909 0.358-1.498 0.435-2.189 0.269-2.867 0.666-5.478 1.575-7.68 0.089-0.358 0.269-0.55 0.435-0.909 1.242-2.918 2.944-5.363 5.056-7.475 0.038-0.077 0.115-0.166 0.205-0.217 9.703-9.562 26.381-12.007 35.865-21.453 13.786-13.773 12.787-80.806 12.787-80.806s1.28-77.312-12.121-89.779c-26.944-25.011-50.343-20.275-70.106-42.969-14.003-16.089-11.456-44.825-11.456-44.825l132.762 0.013v-116.979l9.907-71.079h2.381l9.945 71.079v116.966h132.736c-0.051 0.013 2.471 28.697-11.495 44.839z" />
<glyph unicode="&#xe619;" d="M499.891 265.024h-64.743c-4.634 20.121-12.48 39.053-23.45 56.512l45.811 45.773c4.774 4.775 4.774 12.506 0 17.28l-40.832 40.858c-2.253 2.291-5.389 3.584-8.615 3.584s-6.323-1.331-8.691-3.584l-45.721-45.863c-17.459 10.995-36.416 18.816-56.55 23.45v64.793c0 6.72-5.466 12.16-12.185 12.16h-57.741c-6.733 0-12.147-5.44-12.147-12.16v-64.793c-20.096-4.634-39.104-12.454-56.525-23.45l-45.773 45.863c-2.445 2.381-5.529 3.495-8.64 3.495-3.123 0-6.195-1.152-8.589-3.495l-40.87-40.858c-2.291-2.24-3.635-5.401-3.635-8.64 0-3.226 1.37-6.31 3.635-8.64l45.773-45.773c-10.969-17.459-18.778-36.391-23.411-56.512h-64.781c-6.694 0-12.224-5.453-12.224-12.173v-57.779c0-6.72 5.529-12.16 12.224-12.16h64.781c4.557-20.083 12.442-39.053 23.411-56.461l-45.773-45.837c-4.749-4.774-4.749-12.505 0-17.255l40.87-40.806c2.24-2.279 5.376-3.61 8.589-3.61 3.239 0 6.311 1.357 8.64 3.61l45.773 45.798c17.408-11.021 36.403-18.893 56.525-23.462v-64.73c0-6.733 5.415-12.186 12.147-12.186h57.741c6.72 0 12.185 5.453 12.185 12.185v64.729c20.173 4.57 39.142 12.442 56.55 23.462l45.721-45.773c2.406-2.457 5.504-3.635 8.691-3.635 3.085 0 6.221 1.229 8.615 3.635l40.832 40.781c2.329 2.317 3.546 5.389 3.546 8.678 0 3.238-1.229 6.272-3.546 8.576l-45.811 45.837c10.969 17.408 18.816 36.377 23.45 56.461h64.743c6.72 0 12.109 5.44 12.109 12.16v57.779c0 6.72-5.389 12.173-12.109 12.173zM358.285 223.949c0-56.397-45.875-102.17-102.259-102.17-56.371 0-102.144 45.773-102.144 102.169 0 56.409 45.786 102.233 102.144 102.233 56.384 0 102.259-45.849 102.259-102.233z" />
<glyph unicode="&#xe61a;" d="M404.685 475.098v-34.778h-172.211v-397.747h-125.159v37.555h-107.315v-107.238h107.315v37.632h157.235v397.696h140.135v-40.461h107.315v107.341z" />
<glyph unicode="&#xe61b;" d="M511.245 364.365v116.377h-122.791v-78.848l-293.735-316.749h-95.463v-116.39h122.803v83.264l289.613 312.346z" />
<glyph unicode="&#xe61c;" d="M404.749 475.098v-34.765h-172.275v-397.786h-125.184v37.581h-107.29v-107.226h107.29v37.543h157.184v397.773h140.275v-40.397h107.251v107.277z" />
<glyph unicode="&#xe61d;" d="M0 235.111h512v-22.247h-512v22.246z" />
<glyph unicode="&#xe61e;" d="M512 235.277h-307.021l-97.024 101.415-107.955-112.832 107.674-112.55 97.011 101.376h307.315v22.592zM107.686 144l-76.403 79.846 76.672 80.179 76.429-79.872-76.698-80.154z" />
<glyph unicode="&#xe61f;" d="M0 212.723h307.021l97.024-101.415 107.955 112.832-107.673 112.55-97.011-101.376h-307.315v-22.592zM404.313 304l76.403-79.846-76.672-80.179-76.429 79.872 76.697 80.154z" />
<glyph unicode="&#xe620;" d="M512 235.264h-309.786c-5.696 50.726-48.333 90.406-100.557 90.406-56.038 0-101.645-45.606-101.645-101.696 0-56.064 45.606-101.683 101.645-101.683 52.224 0 94.861 39.693 100.557 90.406h309.786v22.566z" />
<glyph unicode="&#xe621;" d="M0 212.736h309.786c5.696-50.726 48.333-90.406 100.557-90.406 56.038 0 101.645 45.606 101.645 101.696 0 56.064-45.606 101.683-101.645 101.683-52.224 0-94.861-39.693-100.557-90.406h-309.786v-22.567z" />
<glyph unicode="&#xe622;" d="M512 235.264h-307.008l-97.037 101.427-107.955-112.832 107.686-112.576 96.986 101.376h307.328z" />
<glyph unicode="&#xe623;" d="M0 212.736h307.008l97.037-101.427 107.955 112.832-107.686 112.576-96.986-101.376h-307.328z" />
<glyph unicode="&#xe624;" d="M512 235.238h-309.786c-5.696 50.714-48.333 90.419-100.557 90.419-56.038 0-101.645-45.632-101.645-101.671 0-56.089 45.606-101.658 101.645-101.658 52.224 0 94.861 39.642 100.557 90.355h309.786v22.553zM101.683 144.883c-43.597 0-79.104 35.456-79.104 79.117 0 43.623 35.495 79.13 79.104 79.13 43.661 0 79.168-35.495 79.168-79.13-0.025-43.661-35.52-79.117-79.168-79.117z" />
<glyph unicode="&#xe625;" d="M0 212.762h309.786c5.696-50.714 48.333-90.419 100.557-90.419 56.038 0 101.645 45.632 101.645 101.671 0 56.089-45.606 101.658-101.645 101.658-52.224 0-94.861-39.642-100.557-90.355h-309.786v-22.553zM410.317 303.117c43.597 0 79.104-35.456 79.104-79.117 0-43.623-35.495-79.13-79.104-79.13-43.661 0-79.168 35.495-79.168 79.13 0.026 43.661 35.52 79.117 79.168 79.117z" />
<glyph unicode="&#xe626;" d="M183.463 235.238h328.538v-22.49h-328.538v22.489zM194.688 107.161l-194.688 116.825 194.688 116.889v-233.715zM43.687 223.987l128.525-77.069v154.202l-128.525-77.133z" />
<glyph unicode="&#xe627;" d="M328.538 212.762h-328.538v22.489h328.538v-22.489zM317.312 340.839l194.688-116.826-194.688-116.889v233.715zM468.313 224.013l-128.525 77.069v-154.202l128.525 77.133z" />
<glyph unicode="&#xe628;" d="M512 235.213h-317.312v105.626l-194.688-116.864 194.688-116.839v105.6h317.312z" />
<glyph unicode="&#xe629;" d="M0 212.787h317.312v-105.625l194.688 116.864-194.688 116.838v-105.6h-317.312z" />
<glyph unicode="&#xe62a;" d="M512 235.699h-345.382l52.224 104.423-218.841-116.109 218.867-116.147-52.224 104.409h345.357v23.424zM49.92 224.013l115.315 61.171-30.618-61.171 30.592-61.184-115.29 61.184zM160.793 224.013l3.072 6.131v-12.25l-3.072 6.119z" />
<glyph unicode="&#xe62b;" d="M0 212.301h345.382l-52.224-104.423 218.841 116.109-218.867 116.147 52.224-104.409h-345.357v-23.424zM462.080 223.987l-115.315-61.171 30.618 61.171-30.592 61.184 115.29-61.184zM351.207 223.987l-3.072-6.131v12.25l3.072-6.118z" />
<glyph unicode="&#xe62c;" d="M512 235.661h-345.382l52.224 104.448-218.841-116.109 218.867-116.121-52.249 104.371h345.382v23.411zM160.793 223.974l3.072 6.119v-12.237l-3.072 6.118z" />
<glyph unicode="&#xe62d;" d="M0 212.339h345.382l-52.224-104.448 218.841 116.109-218.867 116.121 52.25-104.371h-345.382v-23.411zM351.207 224.025l-3.072-6.119v12.237l3.072-6.119z" />
<glyph unicode="&#xe62e;" d="M404.966 480.729v-37.67c-4.966-0.064-106.547-1.178-165.671-120.717-20.083-40.512-32.666-85.529-44.813-129.063-24.231-86.72-41.434-139.917-87.437-139.917v37.709h-107.046v-116.839h107.046v37.671c76.48 0 100.519 86.041 123.789 169.267 11.584 41.587 23.603 84.57 41.881 121.472 48.166 97.318 128.819 98.918 132.25 98.918v-37.671h107.034v116.839h-107.034z" />
<glyph unicode="&#xe62f;" d="M347.213 201.037c44.659 62.118 45.043 148.48-4.582 211.648-60.262 76.531-171.072 89.779-247.68 29.568-76.544-60.25-89.664-171.059-29.543-247.629 50.445-63.962 136.077-83.495 207.552-53.069l136.627-173.555 74.726 58.778-137.101 174.259zM308.774 276.198h-217.011v52.544h217.011v-52.544z" />
<glyph unicode="&#xe630;" d="M404.877 369.063v110.938h-404.877v-422.745h118.259v-89.255h393.741v401.063h-107.123zM26.56 85.005v367.181h351.744v-83.123h-260.045v-284.058h-91.699z" />
<glyph unicode="&#xe631;" d="M317.606 204.377l130.624 43.815-395.303 231.808 103.565-444.621 93.952 114.099 139.75-181.478 68.877 59.251z" />
<glyph unicode="&#xe632;" d="M347.175 200.973c44.647 62.17 45.094 148.531-4.544 211.712-60.301 76.531-171.136 89.779-247.68 29.568-76.505-60.249-89.689-171.059-29.504-247.629 50.317-63.962 136.038-83.495 207.577-53.069l136.627-173.555 74.649 58.778-137.127 174.195zM308.749 276.135h-82.266v-82.137h-52.544v82.137h-82.215v52.608h82.201v82.214h52.544v-82.214h82.265v-52.608z" />
<glyph unicode="&#xe633;" d="M145.498 264.435h221.005v60.8h126.247v38.349h-126.246v60.851h-221.005v-60.851h-126.259v-38.349h126.259zM512 122.803h-81.754v60.774h-348.48v-60.774h-81.766v-38.349h81.766v-60.877h348.48v60.877h81.754z" />
<glyph unicode="&#xe634;" d="M0 398.233h512v-41.498h-512v41.498zM307.942 331.75h145.255v-188.634h-145.255v188.634zM89.945 331.75h145.344v-282.010h-145.344v282.010z" />
<glyph unicode="&#xe635;" d="M512 262.4h-105.651v155.981h-134.375v-155.981h-67.213v91.584h-134.362v-91.584h-70.4v-76.774h70.4v-91.623h134.362v91.623h67.213v-156.006h134.375v156.006h105.651z" />
<glyph unicode="&#xe636;" d="M0 91.328h512v-41.575h-512v41.575zM307.878 304.87h145.255v-188.544h-145.255v188.544zM89.945 398.246h145.319v-281.92h-145.319v281.92z" />
<glyph unicode="&#xe637;" d="M512.013 274.394v69.824h-69.811v-44.723h-114.483v107.507h53.351v69.811h-69.773v-44.749h-238.195v44.749h-69.811v-69.811h49.997v-233.433h-53.273v-69.811h69.747v53.952h114.406v-116.711h-53.312v-69.811h69.811v53.888h241.549v-53.888h69.811v69.811h-53.401v233.395h53.389zM73.523 177.882v233.984h233.971v-112.397h-103.488v44.71h-69.811v-69.811h49.958v-96.499l-110.63 0.013zM307.481 279.296v-101.415h-103.13v101.414h103.13zM438.438 45.286h-234.048v112.423h123.328v121.587h110.72v-234.010z" />
<glyph unicode="&#xe638;" d="M87.424 286.31c10.893 24.614 26.163 47.437 45.862 67.021 41.882 41.881 97.625 65.011 156.889 65.011 59.238 0 114.957-23.13 156.851-65.011s64.973-97.562 64.973-156.787c0-59.303-23.091-115.021-64.973-156.979-6.656-6.656-15.45-9.92-24.192-9.92-8.704 0-17.523 3.328-24.179 9.92-13.274 13.363-13.274 34.931 0.064 48.256 28.992 28.992 45.005 67.635 45.005 108.595 0 41.075-16.013 79.616-45.069 108.608-29.005 29.056-67.495 44.992-108.493 44.992-41.101 0-79.616-15.911-108.595-44.992-21.504-21.517-35.802-48.307-41.831-77.427l73.613-82.406h-213.351l17.063 219.865 70.362-78.745z" />
<glyph unicode="&#xe639;" d="M204.493-32v425.37h-151.949v86.63h406.887v-86.63h-151.552v-425.37h-103.385z" />
<glyph unicode="&#xe63a;" d="M397.094 400.678v79.322h-397.094v-418.777h126.169v-93.223h385.831v432.678h-114.906zM26.009 88.691v363.801h344.96v-360.832h-244.8v-2.906l-100.16-0.064z" />
<glyph unicode="&#xe63b;" d="M424.576 286.336c-10.906 24.666-26.163 47.424-45.837 67.046-41.907 41.92-97.613 64.986-156.903 64.986-59.239 0-114.88-23.065-156.826-64.986-41.882-41.92-65.011-97.625-65.011-156.902 0-59.226 23.13-114.906 65.011-156.851 6.656-6.669 15.386-9.971 24.154-9.971 8.691 0 17.485 3.303 24.179 9.971 13.235 13.351 13.235 34.944 0 48.256-29.082 29.005-45.069 67.571-45.069 108.595 0 41.037 16 79.603 45.069 108.595 28.966 28.992 67.52 44.992 108.506 44.992 41.075 0 79.616-16 108.595-44.992 21.517-21.543 35.738-48.333 41.779-77.44l-73.549-82.432h213.325l-17.050 219.865-70.375-78.733z" />
<glyph unicode="&#xe63c;" d="M463.424 362.918c-13.504 3.495-27.571-5.939-31.526-21.017l-29.171-112.013c-7.526 2.688-16.103 5.248-25.447 7.667l15.296 169.651c1.625 18.394-10.329 34.534-26.624 35.968-16.32 1.498-30.976-12.262-32.627-30.631l-14.695-163.123c-8.077 1.319-16.295 2.535-24.627 3.623v193.523c0 18.471-13.376 33.433-29.773 33.433s-29.709-14.963-29.709-33.433v-187.277c-4.608 0.397-9.216 0.704-13.773 0.986-2.624 0.205-4.697-0.026-7.143 0l-15.629 159.347c-1.831 18.381-16.55 32-32.857 30.4-16.333-1.625-28.135-17.831-26.343-36.211l19.661-199.859c-1.459-26.24 8.089-54.887 1.754-60.851-17.344-16.371-26.010 44.365-80.512 48.026-72.793 4.902-50.65-31.462-24.154-48.026 24.935-15.629 40-38.81 74.010-108.377 29.824-60.992 29.734-71.552 56.666-73.421 26.944-1.843 182.080-11.149 214.63 13.031 32.55 24.166 49.229 227.827 49.229 227.827v0l30.579 116.966c3.904 15.168-3.84 30.285-17.216 33.792z" />
<glyph unicode="&#xe63d;" d="M376.064 283.853c0.371 3.917 0.563 7.911 0.563 11.878v63.642c0 66.56-54.093 120.64-120.678 120.64s-120.576-54.055-120.576-120.64v-63.642c0-3.968 0.256-8.064 0.64-11.878-34.163-8.678-59.507-39.565-59.507-76.467v-160.487c0-43.558 35.264-78.899 78.938-78.899h201.254c43.495 0 78.81 35.341 78.81 78.899v160.486c-0.013 36.877-25.319 67.789-59.443 76.467zM166.183 351.334c0 49.523 40.166 89.817 89.767 89.817 49.613 0 89.869-40.179 89.869-89.817v-47.424c0-6.016-0.563-11.878-1.728-17.561h-176.205c-1.037 5.683-1.741 11.546-1.741 17.561v47.424h0.038zM281.37 105.882v-61.99h-40.793v61.99c-16.358 7.347-27.904 22.745-27.904 40.935 0 25.127 21.671 45.504 48.243 45.504 26.701 0 48.269-20.377 48.269-45.504 0.103-18.176-11.495-33.613-27.815-40.935z" />
<glyph unicode="&#xe63e;" d="M435.648 380.403l-220.339 4.25c-39.45 0.768-71.769-27.981-74.906-67.047l45.261-0.857c2.432 13.965 14.183 23.181 28.749 22.848l220.288-4.224c15.744-0.307 32.499-11.328 32.192-28.723l-1.536-79.693c-0.333-17.050-17.28-27.136-33.28-26.893l-220.288 4.352c-15.232 0.256-26.458 10.022-27.942 24.294l-45.222 0.857c1.126-39.014 32.461-69.517 72.231-70.221l220.352-4.25c40.307-0.807 78.4 29.568 79.193 70.989l1.587 79.693c0.793 42.074-35.968 73.856-76.339 74.624zM293.555 108.416l-220.224 4.25c-16.602 0.333-28.531 11.815-28.211 28.058l1.587 79.565c0.333 16.576 13.005 27.942 29.248 27.559l220.352-4.262c12.48-0.281 25.536-7.386 30.247-18.995l46.413-0.857c-4.505 37.171-38.567 64.256-75.878 64.921l-220.275 4.301c-41.050 0.768-74.419-30.349-75.264-71.782l-1.536-79.565c-0.793-40.806 31.334-73.19 72.422-73.997l220.275-4.25c40.256-0.793 78.003 29.184 79.245 70.438l-45.184 0.87c-0.743-16.755-17.305-26.637-33.216-26.253z" />
<glyph unicode="&#xe63f;" d="M0 467.558v-487.104h512v487.104h-512zM458.253 131.955c-10.125-1.997-123.776-47.373-169.997-52.199-9.997-0.998-20.185-1.549-30.451-1.869-7.975 5.875-25.894 23.949-21.415 67.328 7.731 0.371 14.874 2.803 20.826 6.797 6.4-4.301 14.041-6.925 22.4-6.925 15.872 0 29.504 9.421 35.75 23.002 21.005 0.998 37.849 18.253 37.849 39.501 0 21.747-17.728 39.411-39.603 39.411-4.48 0-8.691-0.857-12.685-2.24 0.807 3.149 1.37 6.375 1.37 9.702 0 22.016-17.817 39.603-39.591 39.603-2.88 0-5.658-0.307-8.384-0.857-3.174 18.688-19.264 32.921-38.899 32.921-21.824 0-39.603-17.69-39.603-39.539-21.837 0-39.526-17.702-39.526-39.565 0-3.802 0.755-7.347 1.741-10.88-0.64 0.064-1.165 0.128-1.741 0.128-21.875 0-39.616-17.625-39.616-39.514 0-21.824 17.741-39.577 39.616-39.577 3.469 0 6.733 0.653 9.946 1.498 7.143-10.227 19.021-17.127 32.55-17.127 7.744 0 15.053 2.381 21.159 6.247 1.958-17.92 3.264-56.346-19.085-68.544-8.089 0.256-15.731 0.601-22.169 0.601-22.656 0-78.144-4.007-105.792-6.029v345.933h405.453l-0.103-287.808z" />
<glyph unicode="&#xe640;" d="M154.765 460.762h-38.349v-126.298h-60.851v-220.966h60.851v-126.247h38.349v126.246h60.8v220.966h-60.8zM456.423 398.233h-60.877v81.767h-38.349v-81.767h-60.774v-348.48h60.774v-81.753h38.349v81.754h60.877z" />
<glyph unicode="&#xe641;" d="M450.406 208h-155.968v67.2h91.558v134.425h-91.558v70.375h-76.877v-70.375h-91.546v-134.425h91.546v-67.2h-155.968v-134.438h155.968v-105.562h76.877v105.562h155.968z" />
<glyph unicode="&#xe642;" d="M388.749 480h41.498v-512h-41.498v512zM175.155 421.159h188.544v-145.255h-188.544v145.255zM81.741 203.251h281.959v-145.318h-281.959v145.318z" />
<glyph unicode="&#xe643;" d="M81.689 480h41.498v-512h-41.498v512zM148.301 421.159h188.506v-145.255h-188.506v145.255zM148.301 203.251h282.022v-145.318h-282.022v145.318z" />
<glyph unicode="&#xe644;" d="M448.013 308.071h-108.992v84.505h-264.666v-264.678h108.966v-84.505h254.31v-74.342h74.355v74.342h-64.025v264.678h0.051zM93.862 147.443v225.69h225.715v-65.063h-136.231v-160.64h-89.485zM319.577 288.563v-141.184h-116.762v141.184h116.762zM428.557 62.861h-225.741v65.037h136.218v160.666h89.536v-225.702zM0 478.938h74.381v-74.355h-74.381v74.355zM437.645 478.938h74.355v-74.355h-74.355v74.355zM0 43.405h74.381v-74.342h-74.381v74.342z" />
<glyph unicode="&#xe645;" d="M480.627 424.998h-121.753v55.002h-205.76v-55.002h-121.728v-58.035h37.504v-398.963h374.17v398.963h37.504v58.035h0.064zM148.659 36.147v330.816h61.312v-330.816h-61.312zM363.303 36.147h-61.248v330.816h61.248v-330.816z" />
<glyph unicode="&#xe646;" d="M404.723 475.098v-34.752h-172.301v-397.747h-125.133v37.555h-107.29v-107.251h107.29v37.504h157.184v397.786h140.25v-40.346h107.277v107.251z" />
<glyph unicode="&#xe647;" d="M451.75 299.328v90.291h-90.355v90.381h-361.395v-361.421h90.343v-90.329h90.329v-60.25h331.328v331.328h-60.25zM30.119 148.685v301.184h301.197v-60.262h-240.973v-240.909l-60.224-0.013zM120.487 58.381v301.107h301.159v-60.185h-240.947v-240.922h-60.211z" />
<glyph unicode="&#xe648;" d="M416 299.328v90.33h-64v90.342h-352v-331.315h64v-90.317h64v-90.368h384v331.328h-96zM96 88.499v271.053h288v-60.224h-256v-210.829h-32zM480-1.869h-320v271.027h320v-271.027z" />
</font>
</defs>
</svg>
